<?xml version="1.0" standalone="no"?><!DOCTYPE svg PUBLIC "-//W3C//DTD SVG 1.1//EN" "http://www.w3.org/Graphics/SVG/1.1/DTD/svg11.dtd"><svg t="1550822471900" class="icon" style="" viewBox="0 0 1024 1024" version="1.1" xmlns="http://www.w3.org/2000/svg" p-id="2388" xmlns:xlink="http://www.w3.org/1999/xlink" width="200" height="200"><defs><style type="text/css"></style></defs><path d="M919.776206 520.384196c0 229.42923-185.988338 415.418576-415.419583 415.418576-229.42923 0-415.411525-185.990353-415.411525-415.418576 0-229.430237 185.983302-415.411525 415.411525-415.411525C733.787868 104.971664 919.776206 290.952951 919.776206 520.384196L919.776206 520.384196zM504.356623 16.452121c-278.315216 0-503.932075 225.615851-503.932075 503.932075S226.041407 1024.322314 504.356623 1024.322314s503.94114-225.623909 503.94114-503.939125S782.671839 16.452121 504.356623 16.452121L504.356623 16.452121zM504.356623 16.452121" p-id="2389" fill="#ffa940"></path><path d="M504.356623 143.334094l0 754.107254c208.241106 0 377.059167-168.816046 377.059167-377.057153S712.597729 143.334094 504.356623 143.334094L504.356623 143.334094zM504.356623 143.334094" p-id="2390" fill="#ffa940"></path></svg>