<?xml version="1.0" standalone="no"?><!DOCTYPE svg PUBLIC "-//W3C//DTD SVG 1.1//EN" "http://www.w3.org/Graphics/SVG/1.1/DTD/svg11.dtd"><svg t="1550822909883" class="icon" style="" viewBox="0 0 1024 1024" version="1.1" xmlns="http://www.w3.org/2000/svg" p-id="8536" xmlns:xlink="http://www.w3.org/1999/xlink" width="200" height="200"><defs><style type="text/css"></style></defs><path d="M723.705 95.891l204.227 204.227-626.564 626.563L97.141 722.455 723.705 95.891m0-28.285L68.857 722.455l232.511 232.511 654.848-654.848L723.705 67.606z" fill="#ffa940" p-id="8537"></path><path d="M254.116 795.63l14.142-14.142 92.66 92.66-14.142 14.142zM386.657 663.092l14.142-14.142 92.66 92.66-14.143 14.142zM519.196 530.553l14.142-14.142 92.66 92.66-14.142 14.142zM651.737 398.015l14.142-14.142 92.66 92.66-14.142 14.141zM784.277 265.477l14.142-14.142 92.66 92.66-14.142 14.141zM261.044 855.575l14.142-14.142 59.032 59.032-14.142 14.142zM314.06 802.56l14.142-14.142 59.032 59.032-14.142 14.142zM340.569 776.051l14.142-14.142 59.032 59.033-14.142 14.142zM367.077 749.544l14.142-14.142 59.032 59.032-14.142 14.142zM393.585 723.036l14.142-14.142 59.032 59.032-14.142 14.142zM446.6 670.02l14.143-14.141 59.032 59.032-14.142 14.142zM473.109 643.513l14.142-14.142 59.032 59.032-14.142 14.142zM499.617 617.006l14.142-14.142 59.032 59.032-14.142 14.142zM605.649 510.974l14.142-14.142 59.032 59.033-14.142 14.142zM632.157 484.467l14.142-14.142 59.032 59.032-14.142 14.142zM658.665 457.96l14.142-14.143 59.032 59.032-14.142 14.142zM711.68 404.944l14.143-14.142 59.032 59.032-14.142 14.142zM738.189 378.436l14.142-14.142 59.032 59.033-14.142 14.142zM764.697 351.929l14.142-14.142 59.032 59.032-14.142 14.142zM791.205 325.421l14.142-14.142 59.032 59.032-14.142 14.142zM844.222 272.405l14.142-14.142 59.032 59.032-14.142 14.142zM526.125 590.498l14.142-14.142 59.032 59.032-14.142 14.142zM579.141 537.483l14.142-14.142 59.032 59.032-14.142 14.142z" fill="#ffa940" p-id="8538"></path></svg>