<?xml version="1.0" standalone="no"?><!DOCTYPE svg PUBLIC "-//W3C//DTD SVG 1.1//EN" "http://www.w3.org/Graphics/SVG/1.1/DTD/svg11.dtd"><svg t="1550822587863" class="icon" style="" viewBox="0 0 1024 1024" version="1.1" xmlns="http://www.w3.org/2000/svg" p-id="3443" xmlns:xlink="http://www.w3.org/1999/xlink" width="200" height="200"><defs><style type="text/css"></style></defs><path d="M910.1 916.4c-1.7 0-3.4-0.4-5-1.3L516.4 690.7 127.7 915.1c-4.8 2.8-10.9 1.1-13.7-3.7-2.8-4.8-1.1-10.9 3.7-13.7l393.7-227.3c3.1-1.8 6.9-1.8 10 0l393.7 227.3c4.8 2.8 6.4 8.9 3.7 13.7-1.9 3.3-5.2 5-8.7 5z" fill="#ffa940" p-id="3444"></path><path d="M506.4 224.5h20v454.6h-20z" fill="#ffa940" p-id="3445"></path><path d="M563.2 250.4h-0.4s-17 27.2-45.6 26.2c-30.5-1.1-46.1-27.3-46.1-27.3l15.6-75.1 26.5-127.1L543.9 172l19.2 77.9 0.1 0.5zM832.6 897.6l0.2-0.2s-9.9-21.1 1.9-38.2c12.7-18.2 34.8-17.4 34.8-17.4l39.8 39.1 67.3 66.2-88.5-30.4-55.1-19-0.4-0.1zM192.8 903.4l-0.2-0.2s9.9-21.1-1.9-38.2c-12.7-18.2-34.8-17.4-34.8-17.4l-39.8 39.1-67.3 66.2 88.5-30.4 55.2-18.9 0.3-0.2zM294.7 809.4l221.1-364.5 218.4 361.7-439.5 2.8z m221.1-325.8L330.4 789.2l368.6-2.3-183.2-303.3z" fill="#ffa940" p-id="3446"></path></svg>