<?xml version="1.0" standalone="no"?><!DOCTYPE svg PUBLIC "-//W3C//DTD SVG 1.1//EN" "http://www.w3.org/Graphics/SVG/1.1/DTD/svg11.dtd"><svg t="1550822788188" class="icon" style="" viewBox="0 0 1026 1024" version="1.1" xmlns="http://www.w3.org/2000/svg" p-id="6057" xmlns:xlink="http://www.w3.org/1999/xlink" width="200.390625" height="200"><defs><style type="text/css"></style></defs><path d="M102.144638 459.650873V383.042394c0-15.321696 10.214464-25.53616 25.53616-25.53616s25.53616 10.214464 25.53616 25.53616V459.650873h76.608478c15.321696 0 25.53616 10.214464 25.53616 25.536159s-10.214464 25.53616-25.53616 25.53616H153.216958v76.608479c0 15.321696-10.214464 25.53616-25.53616 25.536159s-25.53616-10.214464-25.53616-25.536159V510.723192H25.53616c-15.321696 0-25.53616-10.214464-25.53616-25.53616S10.214464 459.650873 25.53616 459.650873H102.144638z m755.870325 352.399002l158.324189 168.538654c10.214464 10.214464 10.214464 25.53616 0 35.750623-10.214464 10.214464-25.53616 10.214464-35.750623 0L817.157107 842.693267c-71.501247 45.965087-158.32419 76.608479-255.361596 76.608479-163.431421 0-311.541147-86.822943-393.256858-224.718205l45.965088-20.428928c71.501247 122.573566 204.289277 199.182045 347.29177 199.182045 224.718204 0 408.578554-183.860349 408.578554-408.578553s-183.860349-408.578554-408.578554-408.578554C408.578554 51.072319 265.57606 137.895262 199.182045 275.790524L153.216958 255.361596c76.608479-153.216958 234.932668-255.361596 408.578553-255.361596 255.361596 0 459.650873 204.289277 459.650873 459.650873 0 143.002494-61.286783 265.57606-163.431421 352.399002zM434.114713 459.650873h204.289277c15.321696 0 25.53616 10.214464 25.53616 25.536159s-10.214464 25.53616-25.53616 25.53616h-204.289277c-15.321696 0-25.53616-10.214464-25.536159-25.53616s10.214464-25.53616 25.536159-25.536159z" p-id="6058" fill="#ffa940"></path></svg>