<?xml version="1.0" standalone="no"?><!DOCTYPE svg PUBLIC "-//W3C//DTD SVG 1.1//EN" "http://www.w3.org/Graphics/SVG/1.1/DTD/svg11.dtd"><svg t="1550822870067" class="icon" style="" viewBox="0 0 1024 1024" version="1.1" xmlns="http://www.w3.org/2000/svg" p-id="7576" xmlns:xlink="http://www.w3.org/1999/xlink" width="200" height="200"><defs><style type="text/css"></style></defs><path d="M380.957481 445.493013h578.506987-578.506987zM380.957481 989.976734h578.506987-578.506987zM380.957481 955.925602h578.506987-578.506987zM380.957481 921.902336h578.506987-578.506987zM380.957481 887.837272h578.506987-578.506987zM380.957481 853.814006h578.506987-578.506987zM380.957481 819.79074h578.506987-578.506987zM380.957481 785.725676h578.506987-578.506987zM380.957481 751.70241h578.506987-578.506987zM380.957481 717.790604h578.506987-578.506987zM380.957481 683.767337h578.506987-578.506987zM380.957481 649.702274h578.506987-578.506987zM380.957481 615.679007h578.506987-578.506987zM380.957481 581.655741h578.506987-578.506987zM380.957481 547.60461h578.506987-578.506987zM380.957481 513.581343h578.506987-578.506987zM380.957481 479.51628h578.506987-578.506987zM380.957481 1024h578.506987-578.506987zM380.957481 445.493013v578.506987-578.506987zM925.441202 445.493013v578.506987-578.506987zM891.376138 445.493013v578.506987-578.506987zM857.352872 445.493013v578.506987-578.506987zM823.30174 445.493013v578.506987-578.506987zM789.278474 445.493013v578.506987-578.506987zM755.255208 445.493013v578.506987-578.506987zM721.190144 445.493013v578.506987-578.506987zM687.166878 445.493013v578.506987-578.506987zM653.255072 445.493013v578.506987-578.506987zM619.231805 445.493013v578.506987-578.506987zM585.166741 445.493013v578.506987-578.506987zM551.143475 445.493013v578.506987-578.506987zM517.120209 445.493013v578.506987-578.506987zM483.055145 445.493013v578.506987-578.506987zM449.031879 445.493013v578.506987-578.506987zM414.980748 445.493013v578.506987-578.506987zM959.464468 445.493013v578.506987-578.506987z" p-id="7577" fill="#ffa940"></path><path d="M641.384546 738.633686h106.639673v59.659142h-106.639673zM641.384546 420.734887h106.639673v59.659143h-106.639673zM641.384546 527.221302h159.611195v59.659142H641.384546zM641.384546 632.425922h106.639673v59.659143h-106.639673zM641.384546 844.855382h159.611195v59.659142H641.384546zM641.384546 0h106.639673v59.659143h-106.639673zM641.384546 104.675184h106.639673v59.659143h-106.639673zM641.384546 315.432739h106.639673v59.659142h-106.639673zM641.384546 209.350368h159.611195v59.659143H641.384546z" p-id="7578" fill="#ffa940"></path><path d="M64.535532 904.514524h522.219519V0z m483.612447-99.157897h-1.950556v0.682694H323.123502v-49.251534h175.731145V460.790944h49.293332z" p-id="7579" fill="#ffa940"></path></svg>